<svg version="1.1" viewBox="0.0 0.0 200.0 50.0" fill="none" stroke="none" stroke-linecap="square" stroke-miterlimit="10" xmlns:xlink="http://www.w3.org/1999/xlink" xmlns="http://www.w3.org/2000/svg"><clipPath id="p.0"><path d="m0 0l200.0 0l0 50.0l-200.0 0l0 -50.0z" clip-rule="nonzero"/></clipPath><g clip-path="url(#p.0)"><path fill="#000000" fill-opacity="0.0" d="m0 0l200.0 0l0 50.0l-200.0 0z" fill-rule="evenodd"/><path fill="#000000" fill-opacity="0.0" d="m37.34283 5.44231l219.52756 0l0 42.48819l-219.52756 0z" fill-rule="evenodd"/><path fill="#000000" d="m53.74908 27.086685l-8.25 0l0 8.515625l-4.296875 0l0 -20.84375l13.578125 0l0 3.468751l-9.28125 0l0 5.390625l8.25 0l0 3.46875zm2.2979279 0.625q0 -2.3125 0.890625 -4.109375q0.890625 -1.8125 2.5625 -2.796875q1.671875 -0.984375 3.875 -0.984375q3.1406288 0 5.109379 1.921875q1.984375 1.921875 2.21875 5.203125l0.03125 1.0625q0 3.5625 -2.0 5.71875q-1.984375 2.15625 -5.343754 2.15625q-3.34375 0 -5.34375 -2.140625q-2.0 -2.15625 -2.0 -5.84375l0 -0.1875zm4.140625 0.296875q0 2.203125 0.828125 3.375q0.84375 1.171875 2.390625 1.171875q1.5000038 0 2.3437538 -1.15625q0.84375 -1.15625 0.84375 -3.6875q0 -2.15625 -0.84375 -3.34375q-0.84375 -1.203125 -2.3750038 -1.203125q-1.515625 0 -2.359375 1.1875q-0.828125 1.1875 -0.828125 3.65625zm21.801746 -4.015625q-0.84375 -0.125 -1.484375 -0.125q-2.359375 0 -3.078125 1.59375l0 10.140625l-4.140625 0l0 -15.5l3.90625 0l0.109375 1.859375q1.25 -2.140625 3.453125 -2.140625q0.6875 0 1.296875 0.1875l-0.0625 3.984375zm5.8692017 -3.890625l0.125 1.734375q1.65625 -2.015625 4.453125 -2.015625q3.0 0 4.109375 2.359375q1.640625 -2.359375 4.65625 -2.359375q2.53125 0 3.75 1.46875q1.234375 1.46875 1.234375 4.421875l0 9.890625l-4.15625 0l0 -9.875q0 -1.328125 -0.515625 -1.9375q-0.515625 -0.609375 -1.8125 -0.609375q-1.859375 0 -2.578125 1.78125l0.015625 10.640625l-4.140625 0l0 -9.859375q0 -1.359375 -0.53125 -1.953125q-0.53125 -0.609375 -1.796875 -0.609375q-1.765625 0 -2.546875 1.46875l0 10.953125l-4.140625 0l0 -15.5l3.875 0zm34.32753 6.984375l-8.25 0l0 8.515625l-4.296875 0l0 -20.84375l13.578125 0l0 3.468751l-9.28125 0l0 5.390625l8.25 0l0 3.46875zm7.614334 8.515625l-4.15625 0l0 -15.5l4.15625 0l0 15.5zm-4.390625 -19.5q0 -0.93750095 0.625 -1.531251q0.625 -0.609375 1.6875 -0.609375q1.0625 0 1.6875 0.609375q0.640625 0.59375 0.640625 1.531251q0 0.9375 -0.640625 1.546875q-0.640625 0.59375 -1.6875 0.59375q-1.046875 0 -1.6875 -0.59375q-0.625 -0.609375 -0.625 -1.546875zm14.93222 19.78125q-3.40625 0 -5.546875 -2.078125q-2.140625 -2.09375 -2.140625 -5.578125l0 -0.40625q0 -2.328125 0.890625 -4.171875q0.90625 -1.84375 2.5625 -2.828125q1.65625 -1.0 3.78125 -1.0q3.171875 0 5.0 2.015625q1.828125 2.0 1.828125 5.671875l0 1.6875l-9.859375 0q0.1875 1.515625 1.203125 2.4375q1.015625 0.921875 2.5625 0.921875q2.390625 0 3.734375 -1.734375l2.03125 2.28125q-0.9375 1.3125 -2.53125 2.046875q-1.578125 0.734375 -3.515625 0.734375zm-0.46875 -12.71875q-1.234375 0 -2.0 0.84375q-0.765625 0.828125 -0.984375 2.375l5.765625 0l0 -0.328125q-0.03125 -1.375 -0.75 -2.125q-0.71875 -0.765625 -2.03125 -0.765625zm13.555786 12.4375l-4.15625 0l0 -22.0l4.15625 0l0 22.0zm2.7603455 -7.859375q0 -3.625 1.625 -5.765625q1.640625 -2.15625 4.453125 -2.15625q2.265625 0 3.734375 1.6875l0 -7.906251l4.15625 0l0 22.0l-3.734375 0l-0.203125 -1.640625q-1.546875 1.921875 -3.984375 1.921875q-2.734375 0 -4.390625 -2.15625q-1.65625 -2.15625 -1.65625 -5.984375zm4.140625 0.296875q0 2.171875 0.765625 3.34375q0.765625 1.15625 2.203125 1.15625q1.921875 0 2.703125 -1.625l0 -6.109375q-0.765625 -1.625 -2.671875 -1.625q-3.0 0 -3.0 4.859375zm21.431961 3.28125q0 -0.765625 -0.75 -1.203125q-0.75 -0.4375 -2.421875 -0.78125q-5.53125 -1.15625 -5.53125 -4.6875q0 -2.0625 1.71875 -3.4375q1.71875 -1.390625 4.46875 -1.390625q2.953125 0 4.71875 1.390625q1.78125 1.390625 1.78125 3.609375l-4.140625 0q0 -0.890625 -0.578125 -1.46875q-0.578125 -0.578125 -1.796875 -0.578125q-1.03125 0 -1.609375 0.46875q-0.578125 0.46875 -0.578125 1.203125q0 0.6875 0.65625 1.109375q0.65625 0.421875 2.203125 0.734375q1.546875 0.3125 2.59375 0.6875q3.28125 1.203125 3.28125 4.171875q0 2.125 -1.8125 3.4375q-1.8125 1.296875 -4.703125 1.296875q-1.9375 0 -3.453125 -0.6875q-1.515625 -0.703125 -2.375 -1.90625q-0.859375 -1.203125 -0.859375 -2.609375l3.921875 0q0.0625 1.09375 0.8125 1.6875q0.765625 0.578125 2.046875 0.578125q1.1875 0 1.796875 -0.4375q0.609375 -0.453125 0.609375 -1.1875z" fill-rule="nonzero"/><path fill="#000000" fill-opacity="0.0" d="m11.529487 15.636484l23.666664 0l0 19.727034l-23.666664 0z" fill-rule="evenodd"/><path fill="#000000" fill-opacity="0.0" d="m14.48782 15.636484l0 19.727034m-2.958333 -17.261154l23.666664 0" fill-rule="evenodd"/><path fill="#000000" fill-opacity="0.0" d="m11.529487 15.636484l23.666664 0l0 19.727034l-23.666664 0z" fill-rule="evenodd"/><path stroke="#000000" stroke-width="1.0" stroke-linejoin="round" stroke-linecap="butt" d="m14.48782 15.636484l0 19.727034m-2.958333 -17.261154l23.666664 0" fill-rule="evenodd"/><path stroke="#000000" stroke-width="1.0" stroke-linejoin="round" stroke-linecap="butt" d="m11.529487 15.636484l23.666664 0l0 19.727034l-23.666664 0z" fill-rule="evenodd"/></g></svg>