<?xml version="1.0" standalone="no"?>
<!DOCTYPE svg PUBLIC "-//W3C//DTD SVG 20010904//EN"
 "http://www.w3.org/TR/2001/REC-SVG-20010904/DTD/svg10.dtd">
<svg version="1.0" xmlns="http://www.w3.org/2000/svg"
 width="260.000000pt" height="260.000000pt" viewBox="0 0 260.000000 260.000000"
 preserveAspectRatio="xMidYMid meet">
<metadata>
Created by potrace 1.14, written by Peter Selinger 2001-2017
</metadata>
<g transform="translate(0.000000,260.000000) scale(0.100000,-0.100000)"
fill="#000000" stroke="none">
<path d="M0 1305 l0 -1295 1295 0 1295 0 0 1295 0 1295 -1295 0 -1295 0 0
-1295z m320 1120 l0 -145 -145 0 -145 0 0 145 0 145 145 0 145 0 0 -145z
m2240 0 l0 -145 -1105 0 -1105 0 0 145 0 145 1105 0 1105 0 0 -145z m-2240
-1280 l0 -1105 -145 0 -145 0 0 1105 0 1105 145 0 145 0 0 -1105z m2240 0 l0
-1105 -1105 0 -1105 0 0 1105 0 1105 1105 0 1105 0 0 -1105z"/>
<path d="M1115 1740 l-30 -5 1 -610 0 -610 127 -3 127 -3 0 251 0 250 33 1
c17 0 127 1 242 2 l210 2 3 101 2 101 -227 1 c-126 0 -236 1 -245 1 -16 1 -18
15 -18 159 l0 157 263 -1 c144 0 268 2 275 4 8 3 12 33 12 103 l0 99 -327 1
c-181 0 -348 1 -373 2 -25 1 -58 0 -75 -3z"/>
</g>
</svg>
